HIERARCHY
ROOT pelvis
{
  OFFSET 0 100 0
  CHANNELS 6 Xposition Yposition Zposition Zrotation Xrotation Yrotation
  JOINT pelvis_right_femur
  {
    OFFSET -10.78128 -3.44521 -0.5502486
    CHANNELS 3 Zrotation Xrotation Yrotation
    JOINT right_femur_tibia
    {
      OFFSET -0.8047443 -44.0398 -0.1307829
      CHANNELS 3 Zrotation Xrotation Yrotation
      JOINT right_tibia_foot
      {
        OFFSET 3.006224 -47.83518 -5
        CHANNELS 3 Zrotation Xrotation Yrotation
        End Site
        {
          OFFSET 0 -5 15
        }
      }
    }
  }
  JOINT pelvis_left_femur
  {
    OFFSET 10.78128 -3.44521 -0.5502486
    CHANNELS 3 Zrotation Xrotation Yrotation
    JOINT left_femur_tibia
    {
      OFFSET 0.8047443 -44.0398 -0.1307829
      CHANNELS 3 Zrotation Xrotation Yrotation
      JOINT left_tibia_foot
      {
        OFFSET -4.370144 -48.10324 -4.275266
        CHANNELS 3 Zrotation Xrotation Yrotation
        End Site
        {
          OFFSET 0 -5 15
        }
      }
    }
  }
  JOINT pelvis_spine1
  {
    OFFSET 0 6.468898 -3.129235
    CHANNELS 3 Zrotation Xrotation Yrotation
    JOINT spine1
    {
      OFFSET 0 23.15396 4.99043
      CHANNELS 3 Zrotation Xrotation Yrotation
      JOINT spine2
      {
        OFFSET 0 20.79997 -5.064912
        CHANNELS 3 Zrotation Xrotation Yrotation
        JOINT neck
        {
          OFFSET 0 14.38658 9.616178
          CHANNELS 3 Zrotation Xrotation Yrotation
          End Site
          {
            OFFSET 0 20 0
          }
        }
      }
      JOINT right_manubrium
      {
        OFFSET -5.722621 16.35077 3.967754
        CHANNELS 3 Zrotation Xrotation Yrotation
        JOINT right_clavicle
        {
          OFFSET -13.16364 1.694482 -4.693211
          CHANNELS 3 Zrotation Xrotation Yrotation
          JOINT right_humerus
          {
            OFFSET -28.5034 -0.3100689 -2.792744
            CHANNELS 3 Zrotation Xrotation Yrotation
            JOINT right_radius
            {
              OFFSET -25.15693 0.02248979 -1.271978
              CHANNELS 3 Zrotation Xrotation Yrotation
              End Site
              {
                OFFSET -15 0 0
              }
            }
          }
        }
      }
      JOINT left_manubrium
      {
        OFFSET 5.722621 16.35077 3.967754
        CHANNELS 3 Zrotation Xrotation Yrotation
        JOINT left_clavicle
        {
          OFFSET 13.16364 1.694482 -4.693211
          CHANNELS 3 Zrotation Xrotation Yrotation
          JOINT left_humerus
          {
            OFFSET 29.39168 -1.063119 -2.237045
            CHANNELS 3 Zrotation Xrotation Yrotation
            JOINT left_radius
            {
              OFFSET 24.59957 -0.9528479 0.9047498
              CHANNELS 3 Zrotation Xrotation Yrotation
              End Site
              {
                OFFSET 15 -0 -0
              }
            }
          }
        }
      }
    }
  }
}
MOTION
Frames: 15
Frame Time: 0.0416666666667
-543.5277 216.8388 1609.611 -0.6093248 10.21328 169.8795 8.571534 -4.685536 2.432096 -0 13.61894 -0 -18.66902 0.2344817 0.08066113 -0.06575707 -4.590847 3.014216 -0 17.91387 -0 28.79287 0.5532907 8.065399 -1.742846 -1.120072 4.120376 2.834854 9.487225 -7.990862 0.7977358 20.40626 8.284376 3.928698 -26.92994 9.949822 4.823562 -18.43125 11.93818 87.61355 36.05872 -19.49012 -0 0 12.73229 -9.746687 9.829009 6.138009 6.163238 -20.81687 -0.8914988 -89.694 19.85409 17.3653 0 0 -18.83914 14.0936 11.90629 -3.378358
-544.1187 216.6095 1604.753 -0.4734717 10.22062 169.117 8.570049 -4.679281 2.430855 -0 13.61812 -0 -18.66511 0.2299818 0.07993223 -0.0647359 -4.593176 3.011527 -0 17.90866 -0 28.7833 0.552343 8.066473 -1.731493 -1.101632 4.10505 2.832807 9.504736 -7.990131 0.8001558 20.39513 8.292546 3.937888 -26.92219 9.95002 4.798037 -18.41732 11.93998 87.65846 36.05586 -19.51284 -0 0 12.66956 -9.798046 9.844958 6.160568 6.168975 -20.84217 -0.914539 -89.62062 19.78258 17.28212 0 0 -18.94466 14.12964 11.85369 -3.430733
-544.6462 216.38 1599.888 -0.3376004 10.22599 168.3547 8.568588 -4.672616 2.430215 -0 13.61775 -0 -18.6608 0.2250978 0.07895493 -0.06354783 -4.595991 3.009139 -0 17.90284 -0 28.77423 0.5518483 8.067245 -1.718982 -1.082397 4.091101 2.830744 9.522969 -7.989322 0.8021523 20.38429 8.299299 3.946221 -26.91411 9.948267 4.771379 -18.40312 11.94201 87.70589 36.05288 -19.53765 -0 0 12.60313 -9.848848 9.860061 6.183969 6.17225 -20.86776 -0.9405138 -89.54617 19.71247 17.20045 0 0 -19.05576 14.16173 11.79879 -3.477382
-545.1101 216.1504 1595.016 -0.2017505 10.22941 167.5923 8.567152 -4.665562 2.430186 -0 13.61785 -0 -18.65609 0.219837 0.07773062 -0.06220073 -4.599287 3.007062 -0 17.89642 -0 28.7657 0.5518127 8.06771 -1.705453 -1.062635 4.078632 2.828695 9.541761 -7.988481 0.8037194 20.37382 8.304597 3.953632 -26.9058 9.944626 4.743838 -18.38883 11.94426 87.7554 36.04967 -19.56435 -0 0 12.53373 -9.898666 9.8742 6.207934 6.173111 -20.89343 -0.9690773 -89.47142 19.64425 17.12104 0 0 -19.1711 14.18968 11.74222 -3.518059
-545.5105 215.9205 1590.139 -0.06596193 10.23087 166.8301 8.565742 -4.658149 2.430771 -0 13.6184 -0 -18.65099 0.2142128 0.07626411 -0.06070603 -4.603047 3.005299 -0 17.88941 -0 28.75776 0.5522371 8.067867 -1.69106 -1.042596 4.067705 2.826698 9.560933 -7.987653 0.8048572 20.36379 8.308438 3.960077 -26.89735 9.939193 4.715694 -18.37459 11.94672 87.80649 36.04614 -19.59266 -0 0 12.46214 -9.947087 9.887279 6.232202 6.171642 -20.919 -0.9998388 -89.39711 19.57844 17.04456 0 0 -19.28932 14.21334 11.68463 -3.552585
-545.8474 215.6905 1585.257 0.06972535 10.23036 166.068 8.564357 -4.650414 2.431966 -0 13.61941 -0 -18.64552 0.2082448 0.07456383 -0.05907844 -4.60725 3.003851 -0 17.88181 -0 28.75044 0.5531171 8.067717 -1.675971 -1.022514 4.058347 2.824801 9.580291 -7.986882 0.8055711 20.35423 8.310849 3.965532 -26.88887 9.932094 4.687244 -18.36052 11.94938 87.85862 36.0422 -19.62232 -0 0 12.38914 -9.993722 9.899219 6.256533 6.167952 -20.94425 -1.032376 -89.32395 19.5155 16.9716 0 0 -19.40904 14.23261 11.62663 -3.580859
-546.1208 215.4603 1580.371 0.2052717 10.2279 165.306 8.562999 -4.642404 2.43376 -0 13.62087 -0 -18.6397 0.2019592 0.07264177 -0.05733569 -4.611865 3.002716 -0 17.87365 -0 28.74378 0.5544426 8.067266 -1.66036 -1.002597 4.050546 2.823053 9.599636 -7.986211 0.8058717 20.3452 8.311888 3.969995 -26.88048 9.923478 4.658795 -18.34674 11.95223 87.91123 36.03779 -19.65298 -0 0 12.3155 -10.03821 9.90996 6.280715 6.162175 -20.96896 -1.066252 -89.25259 19.45587 16.90266 0 0 -19.52892 14.24747 11.56878 -3.60285
-546.3307 215.2299 1575.482 0.3406381 10.2235 164.5442 8.561669 -4.634172 2.436136 -0 13.62277 -0 -18.63355 0.1953891 0.07051338 -0.05549805 -4.616853 3.001889 -0 17.86497 -0 28.73782 0.5561983 8.066523 -1.644399 -0.9830233 4.044262 2.821507 9.618767 -7.985677 0.805774 20.33672 8.311637 3.973482 -26.87229 9.913515 4.630655 -18.3333 11.95528 87.96375 36.03288 -19.68433 -0 0 12.24194 -10.08022 9.919465 6.304562 6.154464 -20.99292 -1.101024 -89.18362 19.39996 16.83813 0 0 -19.64769 14.25792 11.5116 -3.618596
-546.4772 214.9994 1570.591 0.4757872 10.21715 163.7826 8.560368 -4.62578 2.439067 -0 13.6251 -0 -18.62712 0.188574 0.06819728 -0.05358775 -4.622172 3.001363 -0 17.85582 -0 28.73259 0.5583635 8.0655 -1.628259 -0.9639422 4.039425 2.820217 9.637489 -7.985311 0.8052967 20.32881 8.310197 3.976024 -26.86442 9.902386 4.603121 -18.32027 11.95851 88.01564 36.02748 -19.71602 -0 0 12.16914 -10.11947 9.927716 6.327919 6.144984 -21.01592 -1.136265 -89.11755 19.34812 16.77829 0 0 -19.76421 14.26402 11.45557 -3.628201
-546.5602 214.7688 1565.698 0.6106827 10.20889 163.0211 8.559099 -4.617293 2.442524 -0 13.62781 -0 -18.62043 0.1815591 0.06571489 -0.05162841 -4.627772 3.001128 -0 17.84624 -0 28.72812 0.5609129 8.064213 -1.6121 -0.9454715 4.035946 2.819231 9.655621 -7.98514 0.8044612 20.32146 8.307682 3.977665 -26.85697 9.890274 4.576475 -18.30767 11.96191 88.06636 36.02158 -19.74773 -0 0 12.09773 -10.15572 9.934712 6.350659 6.133908 -21.03776 -1.17157 -89.05481 19.30065 16.72333 0 0 -19.87745 14.26586 11.40108 -3.631824
-546.58 214.5381 1560.805 0.7452909 10.19871 162.2599 8.557863 -4.608783 2.446469 -0 13.6309 -0 -18.61355 0.1743951 0.06308994 -0.04964434 -4.633599 3.001173 -0 17.83631 -0 28.72443 0.5638171 8.062678 -1.59607 -0.9277001 4.03372 2.818594 9.672996 -7.985181 0.8032912 20.31468 8.304216 3.978461 -26.85004 9.877366 4.55097 -18.29552 11.96548 88.11545 36.01524 -19.77916 -0 0 12.02824 -10.18878 9.940468 6.37268 6.121414 -21.05828 -1.20657 -88.99575 19.25778 16.67337 0 0 -19.98654 14.2636 11.34844 -3.629674
-546.5364 214.3072 1555.912 0.87958 10.18664 161.4988 8.556665 -4.600321 2.450859 -0 13.63432 -0 -18.60651 0.1671363 0.06034787 -0.04765989 -4.639595 3.001485 -0 17.82609 -0 28.72154 0.5670432 8.060916 -1.580304 -0.9106898 4.032633 2.818346 9.689469 -7.985447 0.8018113 20.30846 8.299922 3.978472 -26.8437 9.863836 4.526829 -18.2838 11.96921 88.16248 36.00851 -19.81001 -0 0 11.96112 -10.21849 9.945012 6.393907 6.107674 -21.07731 -1.240937 -88.94062 19.21969 16.62843 0 0 -20.09075 14.25741 11.29793 -3.621998
-546.4296 214.0762 1551.02 1.013521 10.1727 160.738 8.555508 -4.591983 2.455649 -0 13.63805 -0 -18.59938 0.1598402 0.05751525 -0.04569886 -4.645703 3.002051 -0 17.81565 -0 28.71946 0.5705562 8.058947 -1.564915 -0.8944785 4.032569 2.818517 9.704919 -7.985944 0.8000465 20.30278 8.294926 3.977767 -26.83803 9.849852 4.504241 -18.2725 11.97309 88.20709 36.00148 -19.84004 -0 0 11.89674 -10.24477 9.948384 6.41429 6.092857 -21.09474 -1.27439 -88.8896 19.1865 16.58845 0 0 -20.18954 14.24748 11.24974 -3.609078
-546.2597 213.8452 1546.13 1.147086 10.15692 159.9774 8.554397 -4.583841 2.460791 -0 13.64204 -0 -18.59221 0.1525659 0.05461916 -0.04378387 -4.651864 3.002856 -0 17.80509 -0 28.71821 0.574319 8.056794 -1.550004 -0.8790836 4.033409 2.81913 9.719248 -7.98667 0.7980217 20.29762 8.289345 3.976412 -26.83306 9.835561 4.483356 -18.2616 11.9771 88.24898 35.9942 -19.86903 -0 0 11.83539 -10.26756 9.950632 6.433796 6.077124 -21.11049 -1.306698 -88.84278 19.15823 16.55333 0 0 -20.28249 14.23404 11.20399 -3.591214
-546.0267 213.614 1541.242 1.280253 10.13931 159.2171 8.553338 -4.575967 2.466234 -0 13.64626 -0 -18.58505 0.1453727 0.05168656 -0.04193594 -4.65802 3.003887 -0 17.79448 -0 28.71778 0.5782941 8.054479 -1.535649 -0.8645059 4.03504 2.820197 9.732386 -7.987621 0.7957611 20.29296 8.28329 3.974475 -26.82883 9.821097 4.464287 -18.25106 11.98123 88.28794 35.98678 -19.89681 -0 0 11.77727 -10.28687 9.951812 6.452412 6.060621 -21.12447 -1.337679 -88.80021 19.1349 16.52291 0 0 -20.36934 14.21731 11.16077 -3.568723
